<svg width="184" height="60" viewBox="0 0 184 60" fill="none" xmlns="http://www.w3.org/2000/svg">
<g clip-path="url(#clip0_141_1046)">
<g clip-path="url(#clip1_141_1046)">
<path d="M17.6573 50.6656C17.6832 50.5782 17.7695 50.5262 17.8523 50.5139C18.1416 50.4707 18.15 50.2653 18.167 50.0413C18.2173 49.3744 18.3999 48.7469 18.773 48.1852C19.0862 47.7139 19.4985 47.3659 20.0535 47.2136C20.1701 47.1816 20.2067 47.1239 20.2075 47.0092C20.2124 46.2629 20.1402 46.4045 20.7994 46.0542C21.6403 45.6074 22.5399 45.2959 23.4238 44.9481C24.411 44.5597 25.3953 44.1635 26.451 43.9941C26.5585 43.9769 26.5829 43.9038 26.6041 43.8236C26.717 43.3958 26.7126 42.9593 26.698 42.5221C26.6941 42.4061 26.6073 42.3595 26.5285 42.3026C25.9494 41.8845 25.3394 41.5095 24.7825 41.0604C23.9637 40.3999 23.3726 39.5572 22.8639 38.6492C22.5111 38.0194 22.1803 37.3787 21.928 36.701C21.8603 36.5192 21.7411 36.4367 21.5513 36.4382C21.253 36.4406 20.9543 36.4387 20.6603 36.3813C19.9015 36.2331 19.4175 35.7462 19.0836 35.0827C18.9947 34.906 18.9263 34.719 18.8226 34.5389C18.8226 34.9997 18.8143 35.4606 18.8244 35.9212C18.8425 36.7461 18.8746 37.5706 18.8957 38.3955C18.9208 39.3797 18.9494 40.3633 19.2332 41.317C19.4305 41.9802 19.7156 42.6015 20.1393 43.1531C20.2022 43.2349 20.2762 43.3096 20.3525 43.3795C20.4625 43.4803 20.5684 43.5032 20.6963 43.3838C20.8498 43.2403 21.051 43.1941 21.2573 43.2063C21.4571 43.218 21.6235 43.1543 21.7756 43.0326C22.0356 42.8247 22.2959 42.6171 22.559 42.4131C22.6312 42.3571 22.6599 42.2918 22.6668 42.2016C22.6792 42.0411 22.783 41.9252 22.9347 41.9381C23.1328 41.9549 23.2321 41.8432 23.3147 41.7119C23.3952 41.584 23.4704 41.58 23.5858 41.6532C23.8033 41.7912 24.0136 41.9383 24.1881 42.1289C24.3809 42.3393 24.3923 42.4413 24.248 42.6864C23.9569 43.1812 23.5598 43.5722 23.0631 43.8585C22.7568 44.035 22.4432 44.1987 22.1348 44.3715C22.063 44.4117 22.0032 44.4264 21.9228 44.3844C21.7792 44.3095 21.6538 44.3694 21.5915 44.4993C21.5394 44.608 21.4732 44.6157 21.3775 44.6039C20.8102 44.5335 20.3397 44.2653 19.9359 43.8775C19.2655 43.2338 18.8835 42.4225 18.6293 41.5452C18.3869 40.709 18.3059 39.8471 18.2482 38.9824C18.1836 38.0145 18.0977 37.0479 18.078 36.0774C18.0772 36.0372 18.0713 35.9893 18.049 35.9585C17.8403 35.6701 17.8254 35.3375 17.8347 35.0028C17.8392 34.8417 17.799 34.7626 17.6258 34.7126C16.9534 34.5186 16.7634 33.5932 17.2851 33.0822C17.5812 32.7921 17.9599 32.6745 18.3589 32.6343C18.5628 32.6137 18.6536 32.5615 18.6808 32.3325C18.7536 31.721 18.8726 31.1164 19.0801 30.5319C19.2528 30.0453 19.5674 29.7063 20.0442 29.5041C20.4854 29.3169 20.9393 29.1659 21.3907 29.0087C21.9091 28.8281 22.2905 28.501 22.5408 28.0152C22.6808 27.7436 22.8349 27.4799 23.0193 27.2359C23.0763 27.1606 23.1227 27.0105 23.2467 27.084C23.3635 27.1533 23.2652 27.2724 23.2341 27.3646C23.1862 27.5071 23.1277 27.646 23.0861 27.7929C23.4266 27.3808 23.6845 26.9174 23.9087 26.4378C24.8167 24.4954 25.9875 22.7235 27.3833 21.1016C28.3242 20.0083 29.4228 19.1208 30.8235 18.6723C31.7623 18.3716 32.725 18.2241 33.7114 18.2731C34.1349 18.2941 34.5518 18.3679 34.9404 18.5528C35.0028 18.5825 35.0838 18.6038 35.1192 18.6547C35.2762 18.8804 35.4584 18.7971 35.662 18.7371C36.4471 18.5059 37.2235 18.5816 37.9926 18.83C38.818 19.0966 39.5417 19.5351 40.187 20.1092C40.2883 20.1993 40.2875 20.2002 40.4234 20.2398C40.4326 20.1141 40.3817 20.008 40.3362 19.9027C39.981 19.0808 39.3372 18.5345 38.5896 18.0929C37.8664 17.6658 37.1016 17.3864 36.2405 17.4523C35.7522 17.4896 35.3285 17.6682 34.9551 17.9795C34.8913 18.0327 34.8276 18.1567 34.7354 18.0774C34.6277 17.9849 34.7307 17.8827 34.7935 17.8087C35.1727 17.3617 35.6799 17.1767 36.2458 17.1471C37.3966 17.0869 38.3843 17.5266 39.2971 18.178C39.4694 18.301 39.6349 18.4333 39.8282 18.5362C39.4211 17.6704 38.8523 16.9432 38.028 16.441C37.3015 15.9983 36.5254 15.789 35.6506 15.9931C35.7405 16.1703 35.8238 16.3142 35.984 16.3918C35.9511 16.5344 35.8436 16.4962 35.7626 16.5002C35.312 16.5229 34.911 16.671 34.5579 16.9542C34.4505 17.0403 34.4133 17.1233 34.4802 17.2558C34.5295 17.3533 34.5537 17.4645 34.5815 17.5715C34.5961 17.6276 34.5812 17.6838 34.5243 17.7152C34.4631 17.749 34.4139 17.7164 34.379 17.672C34.3106 17.5849 34.2475 17.4934 34.1849 17.4019C33.5318 16.4478 32.748 15.6358 31.675 15.155C30.828 14.7756 29.9309 14.6778 29.0122 14.7369C28.8531 14.7471 28.6941 14.7582 28.5351 14.7701C28.4704 14.775 28.3993 14.7787 28.3795 14.7037C28.3555 14.613 28.4328 14.5863 28.4987 14.5639C28.862 14.4407 29.2369 14.3756 29.6191 14.3566C30.6591 14.305 31.6187 14.5806 32.5282 15.0745C32.1685 14.6966 31.7501 14.4002 31.2955 14.1521C31.1982 14.099 31.0957 14.0551 30.999 14.001C30.9084 13.9502 30.838 13.8765 30.8836 13.7647C30.9326 13.6447 31.0356 13.665 31.1324 13.697C31.4173 13.791 31.6811 13.929 31.9368 14.0839C32.7153 14.5554 33.3445 15.182 33.8563 15.9308C33.899 15.9933 33.9419 16.0558 33.9897 16.1256C34.2 16.0587 34.2924 15.9382 34.2771 15.7118C34.2106 14.7262 34.566 13.9406 35.4374 13.4412C36.0815 13.072 36.7778 12.9693 37.5059 13.1614C37.5715 13.1787 37.6351 13.2118 37.7059 13.1898C37.8122 12.3295 36.8451 10.8449 35.8432 10.3727C34.6716 9.82048 33.5727 9.99008 32.5589 10.7872C32.4769 10.6655 32.5659 10.6197 32.6215 10.5691C33.6328 9.64995 35.2535 9.55449 36.3797 10.3515C37.3404 11.0314 37.8545 11.9837 38.0447 13.126C38.0714 13.2863 38.1208 13.3973 38.2754 13.4843C39.1251 13.9625 39.5647 15.1962 39.2275 16.1171C39.2006 16.1906 39.1728 16.2823 39.0758 16.2456C38.9683 16.205 39.0176 16.1029 39.0356 16.0275C39.2063 15.3122 39.0281 14.685 38.5644 14.1275C38.5115 14.0639 38.4636 13.996 38.3889 13.948C38.4268 14.1802 38.4876 14.3933 38.5191 14.6144C38.5606 14.9052 38.5117 15.1805 38.4208 15.4521C38.3936 15.5334 38.3652 15.6525 38.2444 15.6045C38.1431 15.5642 38.1856 15.4633 38.2139 15.3852C38.341 15.0357 38.3465 14.6851 38.2275 14.3316C38.2154 14.65 38.158 14.9585 38.0431 15.2551C38.0181 15.3196 37.9881 15.3824 37.9566 15.4441C37.9199 15.5161 37.8691 15.5831 37.7787 15.5397C37.6857 15.4951 37.7111 15.4112 37.7473 15.3417C37.8642 15.1174 37.9278 14.8778 37.9647 14.6293C37.9768 14.5472 37.9909 14.4656 37.9564 14.3669C37.7324 14.4196 37.7275 14.2761 37.7338 14.1119C37.7472 13.7628 37.7391 13.7553 37.4028 13.645C36.6135 13.3863 35.9349 13.5406 35.4709 14.0964C35.162 14.4664 35.0746 14.8819 35.2619 15.3386C35.3074 15.4498 35.368 15.5111 35.5146 15.4845C37.0483 15.2062 38.2934 15.7584 39.3261 16.8577C40.2564 17.8481 40.8362 19.0242 41.0656 20.3652C41.1343 20.7668 41.1908 21.1735 41.1365 21.5842C41.1277 21.6504 41.1376 21.733 41.0445 21.7491C40.9564 21.7643 40.9261 21.6922 40.893 21.6319C40.0735 20.1402 38.7777 19.309 37.1519 18.9387C36.6756 18.8302 36.202 18.8621 35.7344 18.997C35.618 19.0306 35.6183 19.032 35.5041 19.1309C35.5279 19.2292 35.6163 19.2625 35.6903 19.3089C36.0692 19.546 36.4892 19.6951 36.9002 19.8602C38.0375 20.3173 39.008 21.0256 39.9114 21.8359C40.3607 22.2388 40.8034 22.6499 41.2051 23.1013C41.34 23.253 41.4511 23.2364 41.5915 23.1151C42.1916 22.5966 42.5869 21.9457 42.8255 21.198C43.0944 20.3556 43.1671 19.5032 42.8965 18.6442C42.776 18.2616 42.5818 17.9207 42.3034 17.6295C42.2573 17.5813 42.1923 17.5395 42.2208 17.4523C42.318 17.3817 42.3723 17.4643 42.4313 17.5154C43.0133 18.0195 43.3394 18.6665 43.4487 19.4182C43.5895 20.3863 43.4514 21.3254 43.0829 22.2293C42.8521 22.7955 42.4704 23.2472 41.9872 23.6166C41.7904 23.7671 41.7818 23.803 41.9372 23.9997C42.5603 24.7886 42.9803 25.6663 43.102 26.6719C43.2364 27.7814 43.0738 28.8407 42.5421 29.8333C42.529 29.8577 42.5161 29.8828 42.4992 29.9046C42.4496 29.9686 42.4056 30.0654 42.3056 30.0199C42.1992 29.9715 42.2497 29.8769 42.2794 29.802C42.4796 29.2965 42.6112 28.7746 42.6611 28.2326C42.7115 27.6848 42.6949 27.1399 42.6046 26.5963C42.5819 26.4594 42.4827 26.4422 42.3869 26.4086C41.4446 26.0787 40.5557 25.6457 39.7675 25.0263C38.8856 24.3333 38.1225 23.5184 37.3824 22.6802C37.0858 22.3443 36.7991 21.998 36.4653 21.6924C36.4008 21.761 36.4486 21.8115 36.4685 21.8544C37.2109 23.4532 38.1195 24.9356 39.4745 26.0999C40.1814 26.7073 40.9639 27.1851 41.8652 27.4509C41.9112 27.4644 41.9572 27.4818 41.9991 27.5049C42.0378 27.5263 42.059 27.5637 42.042 27.6101C42.0284 27.6469 41.9959 27.6593 41.9594 27.6621C41.8466 27.671 41.7389 27.6443 41.6323 27.6128C40.5682 27.298 39.6863 26.6876 38.8954 25.9284C37.7357 24.8152 36.9232 23.4668 36.2452 22.0265C36.0984 21.7146 35.9666 21.3946 35.7556 21.112C35.7439 21.4587 35.8261 21.7888 35.9072 22.1194C36.1356 23.0507 36.6644 23.8239 37.2092 24.5872C38.2645 26.0656 39.6623 27.1168 41.3072 27.8589C41.3979 27.8999 41.5772 27.9218 41.5254 28.0553C41.4709 28.196 41.3164 28.1005 41.2147 28.0668C39.7807 27.5904 38.6043 26.7365 37.6287 25.5954C37.0137 24.876 36.4815 24.0989 36.0381 23.2616C35.8916 22.985 35.7767 22.6955 35.6665 22.4035C35.643 22.3415 35.6401 22.2641 35.5332 22.2259C35.4132 22.6087 35.305 22.9788 35.4045 23.3902C35.9038 25.4539 36.6513 27.4116 37.8416 29.184C37.9537 29.3509 38.0607 29.5213 38.1702 29.6901C38.207 29.7467 38.2252 29.8045 38.1704 29.8598C38.1093 29.9214 38.0316 29.9138 37.9843 29.8593C37.6727 29.5008 37.1999 29.4009 36.8314 29.1322C36.5236 28.9077 36.2584 28.6344 35.9335 28.3771C35.966 28.5139 36.0234 28.5971 36.0838 28.6787C36.5085 29.2527 37.0072 29.7491 37.61 30.1368C37.6799 30.1818 37.7477 30.2304 37.8146 30.2798C37.8659 30.3175 37.9184 30.3616 37.8845 30.4341C37.8513 30.5049 37.7797 30.4976 37.7197 30.4868C37.5114 30.4496 37.3275 30.3506 37.1489 30.2434C36.3156 29.7436 35.7297 29.0074 35.2432 28.1906C34.7454 27.355 34.5389 26.4202 34.3985 25.4689C34.3787 25.3346 34.3768 25.1958 34.3157 25.0653C34.1172 25.0906 34.125 25.2289 34.1409 25.361C34.211 25.9425 34.364 26.5046 34.5992 27.0388C35.0618 28.0894 35.611 29.0907 36.3523 29.9763C36.4268 30.0653 36.5236 30.1653 36.4256 30.2879C36.3316 30.4055 36.2045 30.3588 36.1034 30.2978C35.3326 29.8325 34.49 29.9203 33.6523 29.974C33.2031 30.0027 32.761 30.103 32.3097 30.1127C32.199 30.1151 32.0763 30.1239 32.0133 30.0079C31.9453 29.883 32.0227 29.7773 32.0949 29.6855C32.3844 29.3179 32.7903 29.1942 33.2339 29.1772C33.8778 29.1525 34.5034 29.262 35.1124 29.4711C35.1822 29.4951 35.2505 29.5372 35.3339 29.5129C35.3472 29.414 35.2694 29.3634 35.2219 29.3018C34.4927 28.3554 34.0304 27.2913 33.8108 26.1191C33.8032 26.0784 33.7892 26.0388 33.7804 25.9982C33.744 25.8303 33.6644 25.8511 33.5681 25.9496C33.5391 25.9793 33.514 26.0129 33.4861 26.0437C32.1012 27.5682 30.4622 28.6821 28.4353 29.1695C27.781 29.3268 27.1086 29.3749 26.4488 29.4994C25.6781 29.6448 24.9252 29.8577 24.1752 30.0834C23.8833 30.1712 23.5882 30.251 23.2784 30.2443C23.1946 30.2425 23.1116 30.2409 23.0356 30.1994C22.8986 30.1244 22.8755 30.006 22.9856 29.8954C23.0436 29.8373 23.1146 29.7901 23.1852 29.7469C24.9643 28.656 26.364 27.1938 27.4718 25.4313C28.1505 24.3515 28.7848 23.2421 29.5573 22.2221C30.4928 20.9871 31.5189 19.8506 32.927 19.0427C32.5271 19.0914 32.1986 19.211 31.8736 19.3341C31.2036 19.5879 30.564 19.9032 29.9733 20.313C29.9146 20.3538 29.838 20.4684 29.7683 20.3612C29.7114 20.2737 29.8247 20.2189 29.8868 20.1717C30.6189 19.6153 31.3828 19.1158 32.2761 18.8375C32.0813 18.8749 31.8854 18.9072 31.692 18.9509C31.4827 18.9982 31.2737 19.0493 31.0684 19.1113C30.8696 19.1714 30.6734 19.2418 30.4799 19.3173C29.7394 19.6063 29.0977 20.0492 28.5186 20.5879C27.0731 21.9324 26.0214 23.5723 25.0422 25.2617C24.6288 25.9748 24.276 26.7228 23.8867 27.4502C23.7628 27.6818 23.6101 27.8981 23.4584 28.1409C23.9757 27.7635 24.4248 27.3381 24.8636 26.9005C25.2279 26.5372 25.5482 26.1361 25.8719 25.7378C25.9025 25.7001 25.9312 25.6606 25.9644 25.6254C26.0262 25.5599 26.0934 25.473 26.1919 25.5339C26.297 25.5989 26.2356 25.6962 26.1967 25.774C25.9847 26.1975 25.7323 26.5989 25.4244 26.9561C24.5265 27.9978 23.5144 28.8921 22.1777 29.3376C22.0455 29.3817 22.0134 29.4598 22.0186 29.5864C22.0501 30.3551 22.0772 31.1241 22.1059 31.8929C22.1077 31.9417 22.109 31.9912 22.1901 32.0374C23.0413 30.828 24.1964 30.1277 25.7046 30.2752C27.2145 30.4228 28.2377 31.301 28.8407 32.69C29.1097 32.646 29.3737 32.5951 29.643 32.5723C29.8748 32.5527 30.1018 32.5683 30.3253 32.6077C30.4762 32.6344 30.544 32.6054 30.6088 32.4614C31.178 31.1982 32.1484 30.4481 33.5246 30.2666C35.3864 30.021 37.0727 30.9385 37.9063 32.6213C37.9238 32.6565 37.9426 32.6911 37.9865 32.7752C38.063 31.4879 38.0504 30.2422 38.508 29.0499C38.2729 29.0254 38.1474 28.8743 38.0202 28.7285C37.1931 27.7812 36.6133 26.6891 36.15 25.5289C36.096 25.3937 36.0423 25.2584 35.9866 25.124C35.9543 25.0462 35.9032 24.954 36.0085 24.9084C36.1176 24.8611 36.146 24.9734 36.1796 25.0435C36.4643 25.6376 36.7523 26.2298 37.0768 26.8039C37.5011 27.5545 38.0009 28.2508 38.5596 28.9063C38.6257 28.9048 38.6511 28.8495 38.6849 28.8079C38.9928 28.4281 39.3929 28.3151 39.8584 28.4126C40.9357 28.6383 41.7209 29.4637 41.9095 30.5872C42.0783 31.5924 42.0986 32.5999 41.877 33.6018C41.676 34.5108 41.1626 35.1657 40.2906 35.5224C39.8851 35.6882 39.4635 35.7995 39.0367 35.8944C38.7691 35.9539 38.5242 35.9514 38.3534 35.6316C38.2388 35.9535 38.142 36.2253 38.0453 36.4971C37.7988 37.1901 37.5132 37.8665 37.2042 38.5339C36.6223 39.7905 35.7631 40.8151 34.6375 41.6158C34.4619 41.7407 34.3616 41.8848 34.3144 42.0949C34.1597 42.7835 34.0741 43.4717 34.2196 44.1737C34.2532 44.3356 34.3175 44.4203 34.5003 44.4355C35.3988 44.5105 36.2164 44.862 37.0339 45.2072C37.3851 45.3556 37.7291 45.5211 38.0772 45.677C38.477 45.856 38.8885 45.994 39.3236 46.0654C39.6094 46.1123 39.7088 46.2501 39.7125 46.5398C39.7148 46.7183 39.7129 46.8968 39.7129 47.0875C39.9144 47.1353 40.1384 47.177 40.3554 47.2419C41.6331 47.6241 42.3848 48.4581 42.5495 49.7999C42.5834 50.0758 42.5953 50.352 42.6137 50.647C42.0436 50.6656 41.4738 50.6656 40.8914 50.6523C41.199 50.4179 41.5578 50.4681 41.9206 50.5165C41.9278 50.4535 41.9355 50.4134 41.9365 50.3731C41.9403 50.2133 41.9205 50.0559 41.8972 49.8977C41.7252 48.7279 40.9495 47.9001 39.7973 47.6559C39.6611 47.627 39.5886 47.6455 39.5768 47.8032C39.5656 47.9542 39.5309 48.1035 39.5045 48.2532C39.3619 49.0633 39.234 49.8766 38.9919 50.6656C38.8382 50.6656 38.6844 50.6656 38.5187 50.6524C38.5367 50.5545 38.5755 50.4719 38.5956 50.3849C38.7217 49.839 38.8532 49.2941 38.9644 48.7451C39.0976 48.0877 39.2136 47.427 39.279 46.7582C39.293 46.6145 39.2538 46.5629 39.1058 46.5518C38.9559 46.5406 38.8068 46.4969 38.6613 46.4541C38.3756 46.3701 38.3775 46.3665 38.2969 46.6527C37.9998 47.708 37.6735 48.7527 37.1235 49.7103C36.9374 50.0344 36.7323 50.3475 36.536 50.6656C36.3408 50.6656 36.1456 50.6656 35.9387 50.654C36.9166 49.3522 37.4897 47.8743 37.8806 46.3136C37.9086 46.2016 37.8712 46.148 37.7738 46.1041C37.4135 45.9417 37.0593 45.7651 36.6955 45.6112C36.2578 45.426 36.3365 45.4373 36.1436 45.83C35.2856 47.5771 34.1671 49.0957 32.4225 50.0561C32.5572 50.0256 32.6969 49.9897 32.8382 49.9628C33.3763 49.8608 33.9858 50.1853 34.1633 50.6656C33.9681 50.6656 33.7729 50.6656 33.5498 50.6543C33.1558 50.3641 32.7127 50.3729 32.3734 50.6656C31.4151 50.6656 30.4568 50.6656 29.4694 50.6542C29.1928 50.5174 28.949 50.5087 28.7103 50.6656C28.4874 50.6656 28.2645 50.6656 28.0295 50.6537C28.0767 50.5034 28.2131 50.4124 28.2598 50.2709C28.2432 50.2502 28.2365 50.2369 28.2258 50.2295C28.2031 50.2137 28.1789 50.1997 28.1543 50.1871C26.8974 49.5453 26.0757 48.4886 25.4 47.294C25.3545 47.2136 25.2809 47.1185 25.3628 47.0268C25.4465 46.9332 25.5178 47.048 25.6152 47.0795C25.3285 46.58 25.0507 46.1017 24.8254 45.595C24.5546 44.9857 24.7254 45.0199 24.0402 45.273C24.0273 45.2778 24.0151 45.2848 24.0021 45.2896C23.8871 45.3314 23.8475 45.404 23.869 45.5313C24.0866 46.8176 24.5298 48.0177 25.2233 49.1245C25.5706 49.6788 25.9814 50.1832 26.4208 50.6656C26.1979 50.6656 25.975 50.6656 25.7294 50.6517C25.5991 50.5031 25.4909 50.3689 25.3841 50.2336C24.4088 48.9991 23.7415 47.6114 23.3244 46.0986C23.2319 45.7631 23.1809 45.7342 22.8386 45.809C22.7588 45.8265 22.6837 45.8664 22.6074 45.8983C22.4632 45.9585 22.4222 46.0641 22.4497 46.2167C22.61 47.1068 22.7679 47.9973 22.9217 48.8885C23.0239 49.4802 23.118 50.0732 23.2156 50.6656C23.117 50.6656 23.0183 50.6656 22.8969 50.6489C22.7034 49.639 22.535 48.6453 22.3611 47.6526C22.2741 47.1561 22.1773 46.6614 22.0838 46.1661C22.0709 46.0979 22.0563 46.0152 21.961 46.0351C21.8815 46.0517 21.8963 46.1299 21.8965 46.191C21.8966 46.2255 21.8975 46.2606 21.9037 46.2944C22.1697 47.7477 22.4107 49.2051 22.6329 50.6656C22.5885 50.6656 22.5441 50.6656 22.4812 50.6495C22.3634 50.3524 22.3038 50.061 22.2446 49.7699C22.038 48.7549 21.8362 47.7389 21.6278 46.7243C21.5779 46.4813 21.4444 46.3723 21.2545 46.3917C20.953 46.4226 20.6851 46.6403 20.6909 46.8622C20.7011 47.2562 20.7507 47.647 20.8147 48.0355C20.9608 48.9216 21.1178 49.8055 21.3841 50.6656C21.2304 50.6656 21.0767 50.6656 20.9021 50.649C20.8232 50.412 20.7625 50.1922 20.7074 49.9711C20.5336 49.2733 20.4052 48.5665 20.3042 47.855C20.2791 47.6784 20.2028 47.6503 20.052 47.7089C19.8684 47.7801 19.7067 47.8829 19.5654 48.019C18.9415 48.6197 18.7097 49.3891 18.6178 50.219C18.6069 50.3173 18.6574 50.3494 18.7476 50.3656C18.9639 50.4045 19.1546 50.4975 19.3028 50.6656C18.7608 50.6656 18.2188 50.6656 17.6573 50.6656ZM23.3666 31.8445C23.5421 31.7929 23.6321 31.9292 23.7411 32.0184C23.9005 32.1487 24.0553 32.2848 24.2958 32.2904C24.2841 32.2427 24.2803 32.2094 24.2679 32.1796C24.1076 31.7958 24.1487 31.7146 24.559 31.6085C25.6877 31.3166 26.9064 31.8714 27.4385 32.9156C27.4969 33.0302 27.5269 33.1321 27.406 33.2292C27.4688 33.3044 27.5242 33.366 27.5742 33.4317C27.6918 33.5859 27.8095 33.7402 27.921 33.8988C27.9558 33.9483 27.9877 34.0185 27.9153 34.0637C27.8478 34.1058 27.7988 34.0573 27.7581 34.0055C27.7238 33.9618 27.6915 33.9165 27.655 33.8748C27.4742 33.668 27.2956 33.4586 27.0523 33.2878C26.8347 33.8663 26.4517 34.2232 25.8331 34.1897C25.1936 34.1551 24.8909 33.71 24.7435 33.1299C24.5835 33.1873 24.4564 33.2479 24.3598 33.3566C24.3944 33.4789 24.4725 33.5594 24.5466 33.6406C25.1716 34.3264 25.8938 34.5028 26.7694 34.1847C26.9517 34.1184 27.1319 34.046 27.3155 33.9837C27.405 33.9534 27.5048 33.951 27.5441 34.0594C27.5814 34.1622 27.4963 34.2101 27.42 34.2453C27.1243 34.3818 26.8307 34.5239 26.5288 34.645C26.3476 34.7176 26.2248 34.8901 25.9616 34.8403C25.7918 34.8082 25.6083 34.8453 25.466 34.7055C25.3848 34.801 25.3922 34.9208 25.3099 34.9937C25.2494 35.0474 25.185 35.0872 25.1043 35.0437C25.0302 35.0036 25.0288 34.9314 25.0434 34.8611C25.0588 34.7877 25.0826 34.716 25.1018 34.6469C24.7623 34.4251 24.7252 34.4262 24.4291 34.6563C24.3854 34.6903 24.3402 34.7229 24.2933 34.7522C24.2385 34.7864 24.177 34.8126 24.1207 34.7624C24.0574 34.7061 24.0762 34.6377 24.1111 34.5727C24.1749 34.454 24.2988 34.3915 24.3841 34.2901C24.3203 34.1449 24.2214 34.1405 24.0951 34.1969C23.8486 34.3072 23.6029 34.422 23.3314 34.4607C23.2185 34.4767 23.141 34.4252 23.1028 34.3236C23.0608 34.2123 23.1176 34.1343 23.2131 34.0859C23.2742 34.055 23.343 34.0393 23.4081 34.0163C23.5749 33.9574 23.7579 33.9373 23.9063 33.8187C23.8524 33.6344 23.7587 33.5441 23.5572 33.5775C23.1828 33.6395 22.8618 33.517 22.5868 33.261C22.5331 33.211 22.4971 33.1342 22.4092 33.1288C22.3286 33.1759 22.3054 33.2597 22.2821 33.3374C22.1133 33.8988 22.1305 34.4469 22.4291 34.9645C23.5768 36.9546 26.5731 37.2806 27.8837 35.093C28.375 34.273 28.5466 33.4064 28.0922 32.5025C27.5562 31.4364 26.3519 30.7965 25.1733 30.9575C24.4674 31.0539 23.8444 31.3325 23.316 31.8628C23.1247 31.9822 22.9912 32.1579 22.8592 32.3344C22.7954 32.4197 22.7877 32.5059 22.9013 32.5529C23.1665 32.6627 23.4348 32.7266 23.7214 32.5637C23.5224 32.3551 23.2728 32.1831 23.3666 31.8445ZM36.0112 36.7202C35.261 37.203 34.4342 37.3034 33.5741 37.1795C31.8819 36.9357 30.4335 35.3799 30.4046 33.6262C30.4024 33.495 30.3486 33.4209 30.2369 33.3696C29.8573 33.1951 29.49 33.1991 29.1261 33.4209C28.9748 33.5132 28.9052 33.6331 28.8914 33.8077C28.8027 34.9263 28.2798 35.8193 27.3987 36.4826C25.9638 37.5627 23.8524 37.3867 22.5742 36.1178C22.5094 36.0535 22.4627 35.9548 22.3382 35.9576C22.2747 36.0573 22.3124 36.1573 22.339 36.2544C22.5497 37.0231 22.9177 37.7227 23.3014 38.4139C23.7796 39.2753 24.3489 40.0681 25.1314 40.6815C25.9783 41.3454 26.8777 41.9342 27.8125 42.4667C29.1935 43.2533 30.6074 43.2664 32.0377 42.6103C33.0204 42.1595 33.9045 41.5492 34.7557 40.8895C35.3413 40.4356 35.8495 39.9064 36.2414 39.2751C37.0417 37.9857 37.5794 36.587 37.939 35.1173C38.0511 34.6593 38.0681 34.1956 37.9802 33.6801C37.6923 34.9598 37.0993 35.9847 36.0112 36.7202ZM27.1393 44.0379C26.8865 44.8146 26.4491 45.4406 25.6888 45.7974C25.5641 45.856 25.5428 45.9259 25.6081 46.0408C25.7107 46.2217 25.8007 46.4101 25.9093 46.5872C26.8267 48.0832 28.0487 49.2047 29.7862 49.6564C31.0123 49.9752 32.1585 49.8361 33.1683 48.9868C34.0069 48.2815 34.6813 47.4454 35.2401 46.51C35.4762 46.1148 35.476 46.1049 35.059 45.9036C34.3201 45.5468 33.8624 44.9752 33.7124 44.1675C33.6323 43.7361 33.6294 43.301 33.6776 42.8636C33.6982 42.6775 33.7591 42.4928 33.7337 42.2809C33.6122 42.361 33.5092 42.4302 33.4049 42.4972C33.3413 42.5381 33.3167 42.5866 33.3196 42.6689C33.3515 43.5695 33.3835 44.4709 33.2993 45.37C33.2513 45.8819 33.1495 46.3846 32.928 46.8547C32.8903 46.9347 32.8428 47.0379 32.732 46.9994C32.6178 46.9598 32.6554 46.8551 32.6765 46.7668C32.7457 46.4774 32.825 46.1899 32.8802 45.8978C32.9336 45.6147 33.0047 45.3304 32.9774 44.9862C32.9077 45.0897 32.8698 45.1471 32.8307 45.2038C31.8994 46.5571 30.3229 46.8438 28.973 45.9059C28.2786 45.4235 27.7944 44.7601 27.3706 44.0448C27.3291 43.9748 27.3079 43.89 27.227 43.8459C27.1662 43.8846 27.1654 43.9515 27.1393 44.0379ZM34.9817 22.3285C35.0611 21.9155 35.1662 21.5049 35.1327 21.0622C35.0274 21.1029 35.0235 21.1709 35.002 21.2268C34.6492 22.1431 34.1978 23.0078 33.6465 23.8204C32.8729 24.9606 31.9942 25.997 30.791 26.7129C30.6301 26.8086 30.4694 26.9045 30.3074 26.9982C30.2508 27.031 30.1827 27.0529 30.1397 26.9875C30.0858 26.9055 30.1557 26.8622 30.2144 26.8237C30.2666 26.7895 30.3214 26.7595 30.3749 26.7274C30.6844 26.5414 30.9854 26.343 31.2613 26.1091C32.2463 25.2741 33.0241 24.2691 33.6711 23.1586C34.2456 22.1724 34.7482 21.1547 34.9584 20.0197C34.9948 19.8231 35.0662 19.6206 34.9938 19.4117C34.8652 19.4263 34.7877 19.4987 34.7064 19.5606C33.5723 20.4233 32.6064 21.4552 31.7315 22.5713C30.8566 23.6874 30.1951 24.9451 29.4289 26.1336C29.4104 26.1622 29.391 26.1928 29.4097 26.2342C29.4848 26.2986 29.551 26.2383 29.615 26.2078C30.011 26.0193 30.3848 25.7919 30.7259 25.5172C31.945 24.5353 32.9107 23.3361 33.7152 22.001C33.9408 21.6266 34.1474 21.2418 34.3225 20.8406C34.3483 20.7815 34.3719 20.687 34.4631 20.7282C34.5435 20.7646 34.5106 20.8498 34.4876 20.913C34.4452 21.0302 34.3965 21.1453 34.347 21.2598C33.7262 22.6957 32.8513 23.9641 31.7769 25.0931C31.0254 25.8828 30.1868 26.5617 29.1353 26.9244C28.8024 27.0392 28.5255 27.2143 28.3567 27.5384C28.3099 27.6283 28.2292 27.702 28.1581 27.7775C27.7445 28.2175 27.2977 28.6184 26.7261 28.9528C27.2817 28.8761 27.7812 28.8113 28.2723 28.6961C28.6508 28.6073 29.0187 28.4841 29.3818 28.3461C30.9253 27.7595 32.1704 26.7629 33.2352 25.5247C34.0358 24.5937 34.6523 23.5577 34.9817 22.3285ZM36.7254 31.9319C36.0946 31.3006 35.3432 30.9317 34.4476 30.8482C33.6247 30.7716 32.8575 30.9027 32.1787 31.3962C31.5289 31.8686 31.0734 32.4765 31.0133 33.3012C30.9282 34.468 31.4322 35.3665 32.3531 36.0492C32.9954 36.5253 33.7225 36.7296 34.5105 36.5997C35.8202 36.3838 36.6551 35.5754 37.1481 34.3782C37.3023 34.0039 37.3987 33.6134 37.3774 33.205C37.351 32.6974 37.0875 32.3042 36.7254 31.9319ZM26.6854 28.4312C27.0422 28.1654 27.3774 27.8741 27.6815 27.5498C28.4679 26.7114 29.1225 25.7746 29.7362 24.8057C30.2629 23.9741 30.7434 23.1121 31.3465 22.3299C32.2314 21.1823 33.2399 20.1549 34.3484 19.2234C34.4104 19.1713 34.5097 19.1377 34.5115 19.0283C34.3808 19.007 34.3808 19.007 34.2834 19.0316C33.552 19.2161 32.9008 19.5679 32.3009 20.013C31.2012 20.8288 30.3428 21.8696 29.5626 22.9827C28.7377 24.1594 28.034 25.4132 27.2373 26.6076C27.0238 26.9276 26.797 27.2388 26.5698 27.5633C26.6625 27.5721 26.6921 27.5077 26.7348 27.4694C27.1284 27.1163 27.4809 26.7253 27.8038 26.3069C27.853 26.2432 27.9068 26.1441 28.0002 26.1977C28.1126 26.2623 28.0314 26.3602 27.9943 26.434C27.7843 26.8516 27.5143 27.2279 27.2012 27.5749C26.5997 28.2416 25.828 28.6693 25.0633 29.1075C25.0032 29.1419 24.9406 29.1721 24.8808 29.2071C24.8283 29.2378 24.7781 29.2724 24.727 29.3053C25.4286 29.1308 26.0806 28.867 26.6854 28.4312ZM21.5351 33.6742C21.4861 32.7536 21.4624 31.8322 21.4517 30.9103C21.4488 30.6682 21.4276 30.4261 21.4107 30.1843C21.4044 30.0946 21.3874 30.0051 21.2815 29.9693C21.1891 30.0305 21.1942 30.123 21.1989 30.2119C21.2584 31.3275 21.2268 32.4439 21.2241 33.56C21.2236 33.7602 21.1967 33.9609 21.1441 34.1559C21.1278 34.2163 21.1051 34.2859 21.0262 34.2775C20.9497 34.2694 20.9298 34.1964 20.9304 34.1355C20.9319 33.9696 20.9491 33.8039 20.9519 33.6379C20.9692 32.6187 20.9494 31.5999 20.9093 30.5815C20.9005 30.36 20.886 30.1386 20.8695 29.9175C20.8549 29.7228 20.7783 29.6705 20.5953 29.7457C20.455 29.8033 20.3251 29.8856 20.189 29.954C20.0368 30.0305 19.9679 30.1429 19.9804 30.3209C20.0261 30.97 20.0672 31.6196 20.1005 32.2695C20.154 33.3135 20.2375 34.3548 20.3513 35.394C20.3639 35.5094 20.4081 35.5662 20.516 35.598C20.7701 35.673 21.0274 35.7194 21.2927 35.7248C21.7374 35.7338 21.8087 35.6525 21.7317 35.214C21.7293 35.2003 21.7237 35.1872 21.7221 35.1735C21.6654 34.6861 21.5155 34.2106 21.5351 33.6742ZM31.9016 44.9357C31.7605 45.0117 31.6126 45.0682 31.4551 45.1014C30.8181 45.2356 30.2489 45.0448 29.7073 44.7336C29.1855 44.4339 28.7475 44.029 28.3219 43.6094C28.0947 43.3854 27.8683 43.1592 27.5909 42.9957C27.5122 42.9493 27.4332 42.8776 27.3166 42.928C27.3005 43.0846 27.2833 43.2419 27.2688 43.3996C27.2643 43.448 27.2666 43.4961 27.3102 43.5321C27.469 43.6634 27.5511 43.8522 27.667 44.0153C28.1901 44.752 28.7793 45.4186 29.5986 45.8397C30.2529 46.176 30.9213 46.2595 31.5848 45.8765C32.2314 45.5032 32.6639 44.9528 32.8617 44.227C32.8853 44.1403 32.9037 44.0519 32.9187 43.9632C32.9322 43.8837 32.9377 43.8027 32.9467 43.7224C32.6959 44.2099 32.4005 44.6384 31.9016 44.9357ZM38.5309 22.0915C39.8361 23.2288 41.1447 24.3622 42.3325 25.6293C42.2245 25.3062 42.06 25.0125 41.8725 24.7339C41.0953 23.5791 40.1064 22.6208 39.0565 21.72C38.1408 20.9344 37.1126 20.3733 35.9193 20.1391C35.8726 20.1299 35.8257 20.1087 35.7794 20.1535C35.778 20.2619 35.8643 20.3207 35.9281 20.388C36.8238 21.3339 37.9103 22.0543 38.8951 22.895C38.916 22.9129 38.9437 22.9214 38.9707 22.8737C38.9135 22.7699 38.8192 22.6895 38.728 22.607C38.363 22.2769 37.9961 21.9489 37.6336 21.616C37.5724 21.5598 37.4712 21.4875 37.5663 21.3936C37.6475 21.3134 37.7194 21.4022 37.7798 21.4527C38.0242 21.6574 38.2655 21.8658 38.5309 22.0915ZM40.2791 33.5405C40.53 33.3817 40.6175 33.1197 40.6731 32.8565C40.825 32.1377 40.832 31.4135 40.6787 30.6933C40.6208 30.4217 40.5236 30.1606 40.3381 29.9436C40.0246 29.5767 39.6546 29.6295 39.4642 30.07C39.4286 30.1522 39.3989 30.2386 39.38 30.3259C39.2376 30.9849 39.2736 31.647 39.3607 32.3078C39.409 32.6739 39.4972 33.0317 39.7244 33.3341C39.8532 33.5057 40.0064 33.6481 40.2791 33.5405ZM38.8048 29.7367C38.8819 29.7311 38.8941 29.6589 38.9275 29.612C39.347 29.0223 40.0107 28.9376 40.5676 29.4043C40.9089 29.6904 41.0763 30.0756 41.1658 30.4958C41.338 31.3047 41.3308 32.1214 41.1986 32.9328C41.0541 33.8197 40.6523 34.2274 39.851 34.3785C39.5699 34.4314 39.3455 34.3511 39.1615 34.1424C38.9255 33.8746 38.8037 33.5516 38.732 33.2089C38.6745 32.9342 38.6306 32.6567 38.5731 32.3383C38.5326 33.0952 38.5081 33.8075 38.588 34.5189C38.619 34.795 38.6626 35.0685 38.8025 35.3146C38.8562 35.409 38.9443 35.4586 39.048 35.4096C39.1531 35.3598 39.0838 35.2755 39.0574 35.2122C38.9904 35.0515 38.9407 34.886 38.9051 34.7165C38.8892 34.6408 38.8878 34.5572 38.9736 34.5176C39.0442 34.4849 39.1107 34.5142 39.1628 34.5663C39.2265 34.6299 39.2863 34.6973 39.3468 34.764C39.6214 35.0673 39.8573 35.1213 40.2409 34.9689C40.8746 34.7172 41.2368 34.2308 41.3873 33.5874C41.6209 32.5886 41.6123 31.58 41.4075 30.5793C41.2409 29.765 40.7662 29.1956 39.9569 28.9356C39.3193 28.7308 38.8528 29.0451 38.8048 29.7367ZM35.7472 25.786C35.5163 25.1035 35.3324 24.4067 35.1641 23.6956C35.0981 23.7237 35.0719 23.7263 35.0623 23.7403C34.7997 24.1208 34.4946 24.4877 34.6701 25.0059C34.6986 25.0901 34.6993 25.1834 34.7186 25.2712C35.0648 26.8479 35.8831 28.1314 37.1313 29.1461C37.1847 29.1896 37.2336 29.2642 37.3733 29.2211C37.0227 28.6855 36.6968 28.1516 36.4384 27.5813C36.1778 27.0061 35.9605 26.4145 35.7472 25.786ZM38.3168 22.9319C38.0674 22.7651 37.8682 22.5293 37.5775 22.3769C38.0944 23.426 41.1101 25.7893 42.0259 25.8704C42.0184 25.8419 42.0192 25.8112 42.0044 25.7936C41.6605 25.3843 41.2853 25.0046 40.9007 24.634C40.8599 24.5948 40.8043 24.5587 40.7528 24.6065C40.6165 24.7329 40.5124 24.646 40.4062 24.5631C39.7174 24.0257 39.0288 23.4878 38.3168 22.9319ZM29.359 50.024C27.8473 49.5311 26.7222 48.5208 25.7449 47.3086C25.8438 47.5067 25.9556 47.689 26.0764 47.865C26.7056 48.7817 27.4759 49.5423 28.4874 50.0352C28.5397 50.0608 28.5897 50.0828 28.6449 50.0682C28.9229 49.995 29.1991 50.0151 29.4772 50.0724C29.4461 50.0597 29.4151 50.047 29.359 50.024ZM19.6322 33.829C19.6722 33.9128 19.7123 33.9967 19.7524 34.0805C19.763 34.0767 19.7737 34.0729 19.7844 34.069C19.6717 33.0161 19.559 31.9632 19.4457 30.9043C19.3431 30.9323 19.3439 31.0065 19.3309 31.0599C19.2774 31.2816 19.2445 31.5071 19.2321 31.7355C19.1929 32.4555 19.3856 33.1317 19.6322 33.829ZM34.9266 14.2369C34.5768 14.6985 34.4341 15.21 34.5323 15.808C34.7226 15.7252 34.8858 15.6542 35.0722 15.5731C34.809 15 34.8591 14.4605 35.2045 13.9454C35.1179 14.0348 35.0313 14.1241 34.9266 14.2369ZM18.731 33.8211C18.7416 33.7243 18.6829 33.6659 18.6132 33.6169C18.3694 33.4453 17.7607 33.4979 17.5538 33.7096C17.4735 33.7918 17.4079 33.8847 17.4745 34.0058C17.5374 34.1202 17.6487 34.1502 17.7618 34.1202C18.0818 34.0355 18.3985 33.9385 18.731 33.8211ZM25.476 44.7487C25.1226 44.8489 25.0892 44.9279 25.265 45.2315C25.2968 45.2864 25.3306 45.3225 25.3951 45.2996C25.7676 45.1672 26.0625 44.9416 26.2883 44.5662C25.9903 44.588 25.7511 44.6749 25.476 44.7487ZM43.0183 21.5409C43.0169 21.5209 43.0156 21.5008 43.0117 21.4432C42.8803 21.7041 42.7693 21.9373 42.6467 22.1643C42.5214 22.3963 42.359 22.6037 42.2014 22.8148C42.0517 23.0153 41.8305 23.1605 41.7302 23.4018C41.9649 23.3477 42.1207 23.1925 42.2714 23.0324C42.6626 22.6171 42.8798 22.1128 43.0183 21.5409ZM34.9343 45.0166C34.8505 45.0102 34.7689 44.947 34.6653 45.0083C34.9215 45.2532 35.2063 45.4298 35.5232 45.5571C35.6549 45.6099 35.6921 45.516 35.7326 45.4228C35.7769 45.3208 35.7626 45.2523 35.644 45.2191C35.4177 45.1558 35.1929 45.0871 34.9343 45.0166ZM19.3726 33.7602C19.3469 33.6896 19.3213 33.619 19.2956 33.5484C19.3276 34.1509 19.445 34.7242 19.8592 35.2613C19.8696 34.9978 19.9042 34.7898 19.772 34.6096C19.5893 34.3604 19.4782 34.0791 19.3726 33.7602ZM35.3784 16.1054C34.9479 16.2423 34.4096 16.614 34.3208 16.8891C34.7109 16.5793 35.1045 16.3961 35.5418 16.3275C35.5219 16.2091 35.4636 16.1607 35.3784 16.1054ZM17.8466 33.2011C17.7671 33.2655 17.6532 33.2978 17.6151 33.4544C17.9109 33.3555 18.1821 33.2815 18.4624 33.2575C18.5711 33.2482 18.6323 33.2123 18.6196 33.0941C18.6043 32.9521 18.4985 32.9799 18.4162 32.9964C18.2272 33.0342 18.0405 33.0843 17.8466 33.2011ZM26.7316 32.6406C26.841 32.7268 26.9504 32.813 27.0598 32.8992C26.5672 32.36 25.9744 32.0086 25.2455 31.9216C25.3564 32.0565 25.4862 32.126 25.6688 32.1357C26.0746 32.1573 26.385 32.4092 26.7316 32.6406ZM25.5467 32.7397C25.4068 32.9025 25.415 33.0053 25.5748 33.0463C25.6726 33.0713 25.7687 33.0613 25.836 32.9739C25.8815 32.9148 25.8906 32.8419 25.849 32.7806C25.7788 32.677 25.6783 32.6817 25.5467 32.7397ZM24.9229 32.5216C24.944 32.506 25.0145 32.501 24.9581 32.4629C24.884 32.4127 24.8048 32.3564 24.6907 32.3481C24.7152 32.4845 24.7685 32.553 24.9229 32.5216Z" fill="#030712"/>
<path d="M34.6821 50.6658C34.8276 50.2312 35.0663 49.8323 35.2646 49.414C35.7574 48.3748 36.1868 47.3093 36.5973 46.2357C36.6096 46.2033 36.6207 46.1705 36.6343 46.1387C36.6627 46.0725 36.6969 46.004 36.7848 46.0327C36.8667 46.0594 36.8755 46.1317 36.8547 46.2044C36.7881 46.437 36.7282 46.6723 36.6485 46.9004C36.2209 48.1243 35.7093 49.3124 35.118 50.4661C35.0898 50.5212 35.0674 50.5792 35.0402 50.6508C34.9256 50.6658 34.8133 50.6658 34.6821 50.6658Z" fill="#030712"/>
<path d="M27.0229 50.668C27.1328 50.3749 27.2854 50.3201 27.5714 50.4679C27.6625 50.5151 27.7551 50.5621 27.8302 50.6549C27.5715 50.668 27.307 50.668 27.0229 50.668Z" fill="#030712"/>
<path d="M24.0959 14.8751C25.1011 14.4321 26.1155 14.4468 27.1421 14.7132C27.5387 14.8162 27.9325 14.9365 28.296 15.124C28.6346 15.2987 28.9866 15.3823 29.3598 15.4436C30.4035 15.6149 31.3753 15.9965 32.1773 16.6921C32.5466 17.0124 32.9765 17.2062 33.3659 17.4767C33.4855 17.5597 33.6034 17.6458 33.7163 17.7374C33.7768 17.7865 33.8806 17.8439 33.81 17.9351C33.7482 18.0148 33.6724 17.9317 33.6105 17.8944C33.1838 17.6379 32.7244 17.4667 32.2352 17.3809C31.3426 17.2242 30.515 17.4245 29.7323 17.8543C28.8406 18.3438 28.1291 19.0352 27.5101 19.832C26.7673 20.7881 26.1172 21.804 25.5795 22.8875C25.1597 23.7332 24.6592 24.5134 23.984 25.1808C23.2937 25.863 22.6434 26.5881 21.8223 27.124C21.6073 27.2643 21.3881 27.3978 21.1496 27.4958C21.0788 27.5249 20.9968 27.5629 20.9404 27.4851C20.8736 27.3931 20.9503 27.329 21.0128 27.2755C21.4186 26.9283 21.8266 26.5842 22.2077 26.2089C23.3057 25.1275 24.224 23.903 25.0786 22.627C25.1249 22.5579 25.168 22.486 25.2195 22.421C25.3165 22.2987 25.3593 22.3045 25.4474 22.4366C26.3104 20.6314 27.3882 18.9906 29.0708 17.8174C28.8496 17.8427 28.6651 17.9523 28.4743 18.0437C27.656 18.4353 26.9648 19.0075 26.3246 19.6326C25.5391 20.3996 24.6957 21.0966 23.8652 21.8113C21.7332 23.646 20.2233 25.9006 19.38 28.5909C19.312 28.8079 19.2768 29.0356 19.2329 29.2595C19.1894 29.4811 19.0834 29.5233 18.907 29.3724C18.6485 29.1512 18.4784 28.8641 18.3406 28.559C18.0685 27.957 17.9734 27.3137 17.9137 26.663C17.8316 25.7688 17.8584 24.8755 17.9597 23.9858C18.0343 23.3307 18.1631 22.685 18.4907 22.0909C18.3609 21.968 18.1921 21.9294 18.0616 21.8304C17.9909 21.7768 17.8912 21.7229 17.9323 21.6187C17.9732 21.5153 18.0775 21.5576 18.1516 21.5818C18.5584 21.7148 18.8519 21.6267 19.0867 21.2325C19.3082 20.8608 19.6066 20.5348 19.8748 20.1839C19.7664 20.068 19.6316 20.0733 19.5208 20.0256C19.4318 19.9872 19.337 19.9619 19.2493 19.921C19.0487 19.8275 19.0426 19.7622 19.2192 19.6167C19.1909 19.5131 19.1006 19.4522 19.0385 19.3721C18.3182 18.442 17.9994 17.3957 18.1215 16.2208C18.1303 16.1357 18.1391 16.0418 18.2453 16.0334C18.3414 16.0258 18.3666 16.1159 18.3874 16.1876C18.527 16.6688 18.6892 17.1392 18.9877 17.5508C19.2029 17.8475 19.4566 18.1007 19.7944 18.2535C20.3854 18.5209 21.0181 18.3195 21.3284 17.6108C21.7478 16.6528 22.2708 15.7722 23.0217 15.0392C23.1593 14.9049 23.1988 14.7756 23.1902 14.5836C23.1505 13.6941 23.2793 12.8401 23.8172 12.0938C23.9992 11.8413 24.233 11.648 24.5202 11.5242C24.6206 11.481 24.7429 11.4123 24.8147 11.5444C24.8857 11.6751 24.7538 11.7203 24.6689 11.7741C24.1238 12.119 23.695 12.8062 23.6482 13.417C24.05 12.1044 24.9983 11.4287 26.2932 11.2695C27.7594 11.0892 29.0632 11.4631 30.013 12.69C30.2584 13.007 30.3963 13.3787 30.4917 13.7657C30.5115 13.8463 30.5393 13.9455 30.4368 13.982C30.3458 14.0144 30.3054 13.9206 30.2678 13.8583C30.0335 13.4704 29.7658 13.1088 29.4338 12.7987C28.2651 11.7069 26.7482 11.46 25.3421 12.6888C24.7728 13.1863 24.2877 13.7502 23.9167 14.4107C23.8605 14.5108 23.829 14.6107 23.8367 14.7268C23.8517 14.9542 23.8669 14.966 24.0959 14.8751ZM20.6131 21.6067C20.9609 21.5964 21.3019 21.5425 21.6371 21.4493C21.6987 21.4321 21.7695 21.4228 21.794 21.5021C21.8176 21.5786 21.7593 21.6162 21.6979 21.6384C21.6021 21.673 21.5044 21.7023 21.4074 21.7338C21.5795 21.744 21.7462 21.7402 21.9079 21.7099C23.0603 21.4939 24.0538 20.9268 24.9714 20.2368C25.4667 19.8643 25.8794 19.3831 26.3369 18.9591C27.4689 17.91 28.7499 17.1479 30.3044 16.9167C30.3908 16.9038 30.4903 16.9015 30.5875 16.8149C30.219 16.7233 29.8752 16.6935 29.5315 16.6581C28.3811 16.5396 27.2992 16.7328 26.2926 17.3245C25.2867 17.9157 24.478 18.7318 23.6849 19.5676C23.4941 19.7687 23.3131 19.9788 23.0995 20.1575C22.1719 20.9332 21.0947 21.2842 19.8951 21.2917C19.6435 21.2933 19.5533 21.3636 19.4778 21.6197C19.8469 21.6556 20.2105 21.6485 20.6131 21.6067ZM18.5449 23.1237C18.4002 23.6188 18.3218 24.1222 18.3515 24.6705C18.3797 24.5714 18.3958 24.4995 18.4209 24.431C18.4428 24.3713 18.4769 24.3098 18.5551 24.3299C18.6311 24.3494 18.6355 24.4098 18.6235 24.4796C18.5147 25.1073 18.5507 25.7375 18.6104 26.3656C18.6431 26.7097 18.6769 27.0566 18.7787 27.4175C18.8466 27.155 18.8976 26.9176 18.9694 26.6868C19.3969 25.3133 20.1887 24.1605 21.15 23.1122C21.3238 22.9226 21.5156 22.7517 21.7244 22.6016C21.7882 22.5558 21.8636 22.4776 21.9423 22.5655C22.0101 22.6412 21.9388 22.7068 21.8929 22.7653C21.8373 22.8361 21.7787 22.9048 21.718 22.9713C21.1318 23.6123 20.5964 24.2918 20.1355 25.0296C19.679 25.7603 19.3418 26.5347 19.2398 27.401C20.1258 25.3082 21.3504 23.4501 23.0375 21.9066C22.98 21.9083 22.9359 21.9237 22.8923 21.9404C22.3293 22.1553 21.7496 22.2701 21.144 22.2494C20.5069 22.2276 19.8717 22.1774 19.2372 22.1203C19.0572 22.1041 18.9522 22.1715 18.8728 22.325C18.7449 22.5722 18.6357 22.826 18.5449 23.1237ZM22.3486 20.0241C21.7693 20.3297 21.1575 20.5101 20.4975 20.5032C20.3451 20.5015 20.2134 20.5242 20.1818 20.7167C20.418 20.7546 20.637 20.7129 20.8552 20.6827C21.7281 20.5621 22.4929 20.2141 23.0958 19.5614C23.6894 18.9188 24.309 18.3043 24.9757 17.7384C25.8026 17.0365 26.6862 16.4365 27.7841 16.2394C27.8508 16.2274 27.9261 16.2205 28.021 16.1239C25.5693 15.9593 23.6244 16.9387 21.8992 18.4841C22.6435 18.2108 23.3255 17.8092 24.0084 17.3728C24.0436 17.5294 23.966 17.5692 23.9086 17.6111C23.0024 18.2724 22.0324 18.8172 20.9726 19.1927C20.7775 19.2619 20.5742 19.3174 20.3617 19.2905C20.2671 19.2785 20.1831 19.237 20.16 19.1372C20.1348 19.0279 20.2304 19.0031 20.3018 18.9622C20.334 18.9437 20.3878 18.9454 20.3901 18.8729C19.9005 18.8671 19.4735 18.6968 19.076 18.3234C19.2262 18.6359 19.3997 18.867 19.5988 19.0755C20.0793 19.5786 20.6707 19.8332 21.3687 19.7966C21.9045 19.7685 22.3995 19.598 22.8477 19.2979C22.9145 19.2532 22.9949 19.1845 23.0665 19.2767C23.1259 19.3532 23.0588 19.4195 23.0094 19.4769C22.827 19.6887 22.6187 19.8698 22.3486 20.0241ZM22.0619 17.6494C23.6303 16.2526 25.5098 15.7111 27.5697 15.6561C27.4889 15.6124 27.4123 15.5805 27.3326 15.5621C26.6094 15.3945 25.881 15.2937 25.1341 15.284C23.9728 15.2689 23.0733 15.7389 22.3841 16.6506C22.1214 16.9982 21.9091 17.3711 21.8218 17.8189C21.9286 17.7919 21.9762 17.7188 22.0619 17.6494ZM24.546 12.9775C24.9487 12.528 25.3833 12.1142 25.9287 11.7689C24.7219 12.0693 23.9885 12.7848 23.9256 13.8615C24.1068 13.5477 24.3075 13.2672 24.546 12.9775ZM26.4417 14.9563C26.0197 14.8645 25.0483 14.9224 24.7665 15.0544C25.7469 14.948 26.7114 15.0932 27.6724 15.2941C27.2882 15.1291 26.8918 15.0141 26.4417 14.9563ZM23.2561 15.3483C23.1954 15.4158 23.1347 15.4832 23.074 15.5507C23.5129 15.2647 23.5129 15.2647 23.5094 15.1302C23.4117 15.1757 23.3509 15.2602 23.2561 15.3483ZM24.6611 23.8429C24.6526 23.8698 24.6128 23.8884 24.6443 23.9408C24.7483 23.7943 24.8462 23.6564 24.944 23.5186C24.9321 23.51 24.9203 23.5015 24.9084 23.4929C24.8307 23.6028 24.7531 23.7126 24.6611 23.8429Z" fill="#030712"/>
<path d="M34.1531 8.92551C34.2249 9.02255 34.4094 9.08643 34.2915 9.21197C34.1859 9.32436 34.1009 9.16044 34.0213 9.10205C33.3901 8.63922 32.7006 8.37533 31.9169 8.57813C31.0199 8.81024 30.5703 9.479 30.3506 10.3285C30.2493 10.7201 30.2322 11.121 30.2953 11.5251C30.3107 11.6233 30.3689 11.793 30.2355 11.8151C30.0797 11.841 30.0925 11.6599 30.0747 11.5533C29.961 10.87 30.0478 10.2092 30.3583 9.59093C31.0044 8.30439 32.4744 7.89871 33.7471 8.64606C33.8842 8.72654 34.0105 8.82533 34.1531 8.92551Z" fill="#030712"/>
<path d="M32.1217 39.7575C31.8916 39.9199 31.7137 40.1163 31.5544 40.3257C30.985 41.0746 30.2137 41.1676 29.3667 41.0064C28.8623 40.9104 28.4641 40.6334 28.137 40.2428C27.9546 40.0249 27.7686 39.8075 27.5211 39.658C27.3421 39.5498 27.1642 39.5128 26.9848 39.6686C26.8577 39.779 26.7555 39.7261 26.6802 39.5955C26.5618 39.3901 26.6166 39.0421 26.7912 38.8816C26.9301 38.7539 27.1396 38.7341 27.2802 38.8814C27.6787 39.2987 28.1205 39.219 28.5523 38.9191C29.1456 38.507 29.2689 38.5268 29.7556 39.0691C29.792 39.1096 29.8208 39.157 29.8486 39.195C29.9681 39.1385 29.9935 39.0451 30.0449 38.9749C30.2412 38.7065 30.5022 38.6209 30.8106 38.7388C30.9134 38.7781 31.0114 38.8328 31.1067 38.8888C31.3242 39.0165 31.5547 39.1075 31.8038 39.149C32.1177 39.2012 32.3955 39.1462 32.611 38.887C32.7062 38.7726 32.8197 38.6659 32.9857 38.7389C33.1577 38.8146 33.2164 38.9675 33.2206 39.1464C33.2247 39.3231 33.1853 39.4779 33.011 39.565C32.9449 39.5981 32.8642 39.6146 32.8137 39.5635C32.6334 39.3811 32.4874 39.5123 32.3369 39.6038C32.2659 39.647 32.2009 39.6997 32.1217 39.7575Z" fill="#030712"/>
<path d="M28.3714 37.337C28.3049 36.9337 28.4448 36.6147 28.7076 36.3425C28.7694 36.2785 28.8585 36.2231 28.9488 36.2953C29.0419 36.3697 28.9902 36.4576 28.9485 36.5389C28.8157 36.798 28.8141 36.8077 29.1113 36.8532C29.5106 36.9142 29.9139 36.903 30.3141 36.8613C30.5431 36.8374 30.5648 36.7722 30.4612 36.5566C30.3824 36.3928 30.2775 36.2473 30.1629 36.1073C30.1265 36.0628 30.1056 36.0091 30.1567 35.9584C30.1987 35.9168 30.2438 35.934 30.2911 35.9525C30.7211 36.1203 31.1557 36.9067 31.0615 37.3485C31.0071 37.6036 30.8912 37.6794 30.6487 37.6C30.3896 37.5153 30.2064 37.6215 30.0487 37.8119C29.9043 37.9862 29.8523 37.9819 29.7329 37.7866C29.5636 37.5099 29.4219 37.4542 29.1078 37.5383C29.0144 37.5633 28.921 37.594 28.8256 37.6044C28.6199 37.6268 28.4562 37.5611 28.3714 37.337Z" fill="#030712"/>
<path d="M35.7189 33.7592C35.6634 33.8134 35.6184 33.857 35.6106 33.9359C35.7283 34.0346 35.8912 34.0288 36.0251 34.0938C36.1248 34.1421 36.2537 34.1816 36.209 34.3259C36.1616 34.4788 36.0293 34.4559 35.914 34.4154C35.7575 34.3603 35.6051 34.2936 35.4512 34.2313C35.3939 34.2081 35.3331 34.1677 35.2826 34.2348C35.2392 34.2925 35.2904 34.3376 35.3188 34.383C35.3555 34.4416 35.3967 34.4977 35.4298 34.5582C35.4664 34.6249 35.4689 34.6949 35.4027 34.7452C35.3322 34.7988 35.2707 34.7637 35.2214 34.707C35.1715 34.6496 35.1201 34.5916 35.0812 34.5268C35.0064 34.4021 34.9205 34.4089 34.8028 34.4692C34.6965 34.5237 34.6517 34.5775 34.7126 34.6938C34.7501 34.7657 34.8017 34.8632 34.7059 34.9155C34.5918 34.9777 34.547 34.8614 34.5097 34.787C34.4443 34.6562 34.3593 34.596 34.2128 34.6499C34.057 34.7071 33.8288 34.5988 33.7653 34.874C33.7474 34.9516 33.6314 34.9141 33.6229 34.8282C33.608 34.6772 33.5084 34.6658 33.3945 34.6414C33.0608 34.57 32.7423 34.4531 32.4435 34.287C32.3678 34.2449 32.2573 34.2019 32.3023 34.0906C32.3473 33.9793 32.4602 33.9937 32.5563 34.023C32.9945 34.1567 33.4324 34.2791 33.9 34.2495C34.4381 34.2153 34.8611 33.9752 35.2052 33.5724C35.0342 33.4185 35.025 33.4193 34.9128 33.5904C34.5767 34.1033 33.7561 34.3217 33.2079 34.0421C32.9933 33.9327 32.8516 33.7594 32.7817 33.5289C32.7621 33.464 32.7657 33.3899 32.6979 33.3406C32.5888 33.3431 32.5352 33.4299 32.4746 33.502C32.3089 33.6991 32.1819 33.9226 32.0466 34.1404C31.9936 34.2258 31.9487 34.361 31.8224 34.309C31.6747 34.2483 31.7598 34.1103 31.7915 34.0172C32.0079 33.3815 32.4417 32.9331 33.0234 32.6151C33.3228 32.4515 33.6432 32.3389 33.9599 32.2169C34.0634 32.177 34.165 32.1338 34.2599 32.0309C34.1641 32.0126 34.0913 32.0373 34.0172 32.0601C33.5642 32.1992 33.139 32.3989 32.734 32.644C32.6512 32.6941 32.5643 32.7381 32.477 32.7802C32.3932 32.8206 32.3002 32.8521 32.2301 32.7649C32.1595 32.677 32.2135 32.5897 32.2685 32.5188C32.5622 32.1402 32.9647 31.9327 33.4181 31.8186C33.8336 31.7141 34.2583 31.7267 34.6778 31.7834C35.0109 31.8283 35.0454 31.9537 34.8251 32.2182C34.8033 32.2444 34.7799 32.2693 34.7553 32.2969C35.0241 32.4034 35.2743 32.267 35.2896 32.01C35.2938 31.9411 35.316 31.8863 35.3777 31.8577C35.4528 31.8228 35.5276 31.835 35.5933 31.885C35.7353 31.9934 35.7492 32.148 35.7095 32.2996C35.6575 32.4977 35.7434 32.5122 35.9018 32.4849C36.0987 32.451 36.2681 32.3628 36.429 32.2511C36.5226 32.1862 36.6251 32.1174 36.7278 32.2178C36.8226 32.3104 36.8522 32.4334 36.8015 32.5626C36.7158 32.7807 36.5394 32.9142 36.3516 33.0372C36.2549 33.1005 36.141 33.1457 36.0794 33.2828C36.2331 33.3351 36.3835 33.2928 36.5301 33.2968C36.5994 33.2987 36.6688 33.2948 36.7381 33.295C36.832 33.2952 36.9316 33.3043 36.9508 33.4161C36.972 33.5388 36.875 33.5841 36.7783 33.6131C36.5179 33.6912 36.2485 33.7117 35.979 33.7303C35.8965 33.736 35.8141 33.7434 35.7189 33.7592ZM33.7963 32.9388C33.6755 32.9285 33.5718 32.9496 33.5528 33.0939C33.5385 33.203 33.5901 33.2829 33.6908 33.3207C33.7864 33.3567 33.876 33.325 33.9194 33.2359C33.9761 33.1197 33.9681 33.0078 33.7963 32.9388Z" fill="#030712"/>
</g>
</g>
<path d="M68.2084 28.266H67.9361V39.75H64.7681V22.4745H69.2231L73.1584 33.9585H73.4306V22.4745H76.5986V39.75H72.1436L68.2084 28.266ZM90.1519 39.75C89.3929 39.75 88.7824 39.5602 88.3204 39.1807C87.8584 38.7847 87.5862 38.2237 87.5037 37.4977H87.3799C87.1489 38.3392 86.6869 38.9745 85.9939 39.4035C85.3174 39.8325 84.4842 40.047 83.4942 40.047C82.2567 40.047 81.2584 39.717 80.4994 39.057C79.7569 38.3805 79.3857 37.44 79.3857 36.2355C79.3857 34.899 79.8724 33.909 80.8459 33.2655C81.8194 32.622 83.2467 32.3002 85.1277 32.3002H87.1819V31.6567C87.1819 30.8977 87.0004 30.3285 86.6374 29.949C86.2909 29.553 85.6969 29.355 84.8554 29.355C84.0799 29.355 83.4529 29.5035 82.9744 29.8005C82.4959 30.0975 82.0834 30.4852 81.7369 30.9637L79.7322 29.1817C80.1612 28.4557 80.8294 27.8617 81.7369 27.3997C82.6609 26.9212 83.8407 26.682 85.2762 26.682C87.0252 26.682 88.3864 27.0862 89.3599 27.8947C90.3499 28.6867 90.8449 29.8912 90.8449 31.5082V37.1017H92.2557V39.75H90.1519ZM84.8802 37.6462C85.5237 37.6462 86.0682 37.4895 86.5137 37.176C86.9592 36.8625 87.1819 36.4087 87.1819 35.8147V34.2802H85.2267C83.7252 34.2802 82.9744 34.7835 82.9744 35.79V36.285C82.9744 36.7305 83.1477 37.0687 83.4942 37.2997C83.8407 37.5307 84.3027 37.6462 84.8802 37.6462ZM101.354 39.75C100.034 39.75 99.0523 39.4035 98.4088 38.7105C97.7653 38.0175 97.4435 37.1347 97.4435 36.0622V29.8252H93.9785V26.979H96.2308C96.7753 26.979 97.163 26.8717 97.394 26.6572C97.625 26.4427 97.7405 26.0467 97.7405 25.4692V22.4745H101.107V26.979H106.081V29.8252H101.107V36.9037H106.081V39.75H101.354ZM119.833 39.75C119.074 39.75 118.463 39.5602 118.001 39.1807C117.539 38.7847 117.267 38.2237 117.184 37.4977H117.061C116.83 38.3392 116.368 38.9745 115.675 39.4035C114.998 39.8325 114.165 40.047 113.175 40.047C111.937 40.047 110.939 39.717 110.18 39.057C109.438 38.3805 109.066 37.44 109.066 36.2355C109.066 34.899 109.553 33.909 110.527 33.2655C111.5 32.622 112.927 32.3002 114.808 32.3002H116.863V31.6567C116.863 30.8977 116.681 30.3285 116.318 29.949C115.972 29.553 115.378 29.355 114.536 29.355C113.761 29.355 113.134 29.5035 112.655 29.8005C112.177 30.0975 111.764 30.4852 111.418 30.9637L109.413 29.1817C109.842 28.4557 110.51 27.8617 111.418 27.3997C112.342 26.9212 113.521 26.682 114.957 26.682C116.706 26.682 118.067 27.0862 119.041 27.8947C120.031 28.6867 120.526 29.8912 120.526 31.5082V37.1017H121.936V39.75H119.833ZM114.561 37.6462C115.204 37.6462 115.749 37.4895 116.194 37.176C116.64 36.8625 116.863 36.4087 116.863 35.8147V34.2802H114.907C113.406 34.2802 112.655 34.7835 112.655 35.79V36.285C112.655 36.7305 112.828 37.0687 113.175 37.2997C113.521 37.5307 113.983 37.6462 114.561 37.6462ZM124.303 36.9037H128.213V24.2812H124.303V21.435H131.876V36.9037H135.787V39.75H124.303V36.9037ZM145.677 25.3455C144.852 25.3455 144.275 25.1805 143.945 24.8505C143.631 24.504 143.474 24.0915 143.474 23.613V22.8952C143.474 22.4002 143.631 21.9877 143.945 21.6577C144.275 21.3277 144.852 21.1627 145.677 21.1627C146.502 21.1627 147.071 21.3277 147.385 21.6577C147.715 21.9877 147.88 22.4002 147.88 22.8952V23.613C147.88 24.0915 147.715 24.504 147.385 24.8505C147.071 25.1805 146.502 25.3455 145.677 25.3455ZM139.787 36.9037H143.846V29.8252H139.787V26.979H147.509V36.9037H151.271V39.75H139.787V36.9037ZM164.354 39.75C163.595 39.75 162.984 39.5602 162.522 39.1807C162.06 38.7847 161.788 38.2237 161.705 37.4977H161.582C161.351 38.3392 160.889 38.9745 160.196 39.4035C159.519 39.8325 158.686 40.047 157.696 40.047C156.458 40.047 155.46 39.717 154.701 39.057C153.959 38.3805 153.587 37.44 153.587 36.2355C153.587 34.899 154.074 33.909 155.048 33.2655C156.021 32.622 157.448 32.3002 159.329 32.3002H161.384V31.6567C161.384 30.8977 161.202 30.3285 160.839 29.949C160.493 29.553 159.899 29.355 159.057 29.355C158.282 29.355 157.655 29.5035 157.176 29.8005C156.698 30.0975 156.285 30.4852 155.939 30.9637L153.934 29.1817C154.363 28.4557 155.031 27.8617 155.939 27.3997C156.863 26.9212 158.042 26.682 159.478 26.682C161.227 26.682 162.588 27.0862 163.562 27.8947C164.552 28.6867 165.047 29.8912 165.047 31.5082V37.1017H166.457V39.75H164.354ZM159.082 37.6462C159.725 37.6462 160.27 37.4895 160.715 37.176C161.161 36.8625 161.384 36.4087 161.384 35.8147V34.2802H159.428C157.927 34.2802 157.176 34.7835 157.176 35.79V36.285C157.176 36.7305 157.349 37.0687 157.696 37.2997C158.042 37.5307 158.504 37.6462 159.082 37.6462Z" fill="#030712"/>
<defs>
<clipPath id="clip0_141_1046">
<rect width="44" height="44" fill="white" transform="translate(8 8)"/>
</clipPath>
<clipPath id="clip1_141_1046">
<rect width="42.625" height="42.625" fill="white" transform="translate(8.6875 8)"/>
</clipPath>
</defs>
</svg>
